<svg xmlns="http://www.w3.org/2000/svg" width="256" height="256" viewBox="0 0 100 100"><rect width="100" height="100" rx="20" fill="#7d6ee7"></rect><path fill="#fff" d="M29.27 39.76L22.19 39.76L22.19 67.54Q21.55 67.72 20.39 67.86Q19.23 68.01 17.96 68.01L17.96 68.01Q15.23 68.01 14.13 67.08Q13.03 66.15 13.03 63.72L13.03 63.72L13.03 39.76L3.92 39.76Q3.57 39.18 3.25 38.25Q2.93 37.33 2.93 36.22L2.93 36.22Q2.93 34.25 3.80 33.35Q4.67 32.45 6.18 32.45L6.18 32.45L31.53 32.45Q31.93 33.03 32.22 33.96Q32.51 34.89 32.51 35.99L32.51 35.99Q32.51 37.91 31.64 38.83Q30.77 39.76 29.27 39.76L29.27 39.76ZM61.17 39.76L54.09 39.76L54.09 67.54Q53.45 67.72 52.29 67.86Q51.13 68.01 49.86 68.01L49.86 68.01Q47.13 68.01 46.03 67.08Q44.93 66.15 44.93 63.72L44.93 63.72L44.93 39.76L35.82 39.76Q35.47 39.18 35.15 38.25Q34.83 37.33 34.83 36.22L34.83 36.22Q34.83 34.25 35.70 33.35Q36.57 32.45 38.08 32.45L38.08 32.45L63.43 32.45Q63.83 33.03 64.12 33.96Q64.41 34.89 64.41 35.99L64.41 35.99Q64.41 37.91 63.54 38.83Q62.67 39.76 61.17 39.76L61.17 39.76ZM96.89 37.33L96.89 37.33Q96.89 38.66 96.20 39.68Q95.50 40.69 94.57 41.27L94.57 41.27Q93.06 40.28 91.30 39.53Q89.53 38.78 87.09 38.78L87.09 38.78Q82.45 38.78 79.84 41.71Q77.23 44.63 77.23 50.03L77.23 50.03Q77.23 55.60 79.99 58.41Q82.74 61.22 87.56 61.22L87.56 61.22Q90.05 61.22 91.82 60.56Q93.59 59.89 95.09 58.96L95.09 58.96Q95.97 59.66 96.52 60.73Q97.07 61.80 97.07 63.14L97.07 63.14Q97.07 64.30 96.46 65.31Q95.85 66.33 94.34 67.02L94.34 67.02Q93.18 67.60 91.21 68.10Q89.24 68.59 86.34 68.59L86.34 68.59Q82.45 68.59 79.09 67.49Q75.72 66.38 73.23 64.12Q70.73 61.86 69.31 58.35Q67.89 54.84 67.89 50.03L67.89 50.03Q67.89 45.50 69.31 42.02Q70.73 38.54 73.17 36.20Q75.61 33.85 78.86 32.63Q82.10 31.41 85.81 31.41L85.81 31.41Q91.09 31.41 93.99 33.09Q96.89 34.77 96.89 37.33Z"></path></svg>